# xmcd
#
# Track frame offsets: 
#        150
#        24101
#        44813
#        67690
#        107901
#        124193
#        162093
#        191345
#        217600
#        241272
#        262543
#        290925
#
# Disc length: 4189 seconds
#
# Revision: 0
# Processed by: cddbd v1.5.2PL0 Copyright (c) Steve Scherf et al.
# Submitted via: ExactAudioCopy v1.0b3
#
DISCID=9b105b0c
DTITLE=CG and The Hammer - Live in Tel Aviv
DYEAR=2009
DGENRE=Blues
TTITLE0=Let the Good Times Roll
TTITLE1=Same Old Fool
TTITLE2=Highway Blues
TTITLE3=Bad Luck
TTITLE4=I Just Can't Quit on You
TTITLE5=Shake Your Hips
TTITLE6=The New Funky Blues
TTITLE7=Boogie With Me
TTITLE8=Slow Night in Clarksdale
TTITLE9=Big Little Woman
TTITLE10=Hoochie Coochie Man
TTITLE11=Blues Heaven
EXTD=
EXTT0=
EXTT1=
EXTT2=
EXTT3=
EXTT4=
EXTT5=
EXTT6=
EXTT7=
EXTT8=
EXTT9=
EXTT10=
EXTT11=
PLAYORDER=
